{"title":"Akrosh - 2010 Hindi  480p DVDRip X264 Untouch AC3 5.1 Audio ESub","uid":6096988,"size":1458119787,"categoryP":"video","categoryS":"movies","magnet":"?xt=urn:btih:5a5941abf3637a3312384878b3b96b34d8019cf7&amp;dn=Akrosh+-+2010+Hindi++480p+DVDRip+X264+Untouch+AC3+5.1+Audio+ESub&amp;tr=udp%3A%2F%2Ftracker.openbittorrent.com%3A80&amp;tr=udp%3A%2F%2Fopen.demonii.com%3A1337&amp;tr=udp%3A%2F%2Ftracker.coppersurfer.tk%3A6969&amp;tr=udp%3A%2F%2Fexodus.desync.com%3A6969","seeders":0,"leechers":1,"uploader":"amanrulz","files":2,"time":1294815823,"description":"mastitorrents.com\n &lt;a href=&quot;\nhttp://mastitorrents.com/forums/index.php&quot; rel=&quot;nofollow&quot; target=&quot;_NEW&quot;&gt;\nhttp://mastitorrents.com/forums/index.php&lt;/a&gt;\n\nSource: DUS ka Warehouse\n\nSubs: English Muxed\n\n\nGeneral\nComplete name                    : C:\\Users\\SK1\\Desktop\\Akrosh - 2010 - 480p DVDRip X264 Untouch AC3 5.1 Audio ESubs {Team DUS}\\Akrosh - 2010 - 480p DVDRip X264 Untouch AC3 5.1 Audio ESubs {Team DUS}.mkv\nFormat                           : Matroska\nFile size                        : 1.36 GiB\nDuration                         : 2h 25mn\nOverall bit rate                 : 1 334 Kbps\nEncoded date                     : UTC 2011-01-11 14:29:59\nWriting application              : mkvmerge v4.0.0 ('The Stars were mine') built on Jun  6 2010 16:18:42\nWriting library                  : libebml v1.0.0 + libmatroska v1.0.0\n\nVideo\nID                               : 1\nFormat                           : AVC\nFormat/Info                      : Advanced Video Codec\nFormat profile                   : &lt;a class=&quot;__cf_email__&quot; href=&quot;/cdn-cgi/l/email-protection&quot; data-cfemail=&quot;8cc4e5ebe4ccc0bfa2bc&quot;&gt;[email&amp;#160;protected]&lt;/a&gt;&lt;script cf-hash='f9e31' type=&quot;text/javascript&quot;&gt;\n/* &lt;![CDATA[ */!function(){try{var t=&quot;currentScript&quot;in document?document.currentScript:function(){for(var t=document.getElementsByTagName(&quot;script&quot;),e=t.length;e--;)if(t[e].getAttribute(&quot;cf-hash&quot;))return t[e]}();if(t&amp;&amp;t.previousSibling){var e,r,n,i,c=t.previousSibling,a=c.getAttribute(&quot;data-cfemail&quot;);if(a){for(e=&quot;&quot;,r=parseInt(a.substr(0,2),16),n=2;a.length-n;n+=2)i=parseInt(a.substr(n,2),16)^r,e+=String.fromCharCode(i);e=document.createTextNode(e),c.parentNode.replaceChild(e,c)}}}catch(u){}}();/* ]]&gt; */&lt;/script&gt;\nFormat settings, CABAC           : Yes\nFormat settings, ReFrames        : 4 frames\nCodec ID                         : V_MPEG4/ISO/AVC\nDuration                         : 2h 25mn\nBit rate                         : 891 Kbps\nWidth                            : 720 pixels\nHeight                           : 320 pixels\nDisplay aspect ratio             : 2.25:1\nFrame rate                       : 23.976 fps\nColor space                      : YUV\nChroma subsampling               : 4:2:0\nBit depth                        : 8 bits\nScan type                        : Progressive\nBits/(Pixel*Frame)               : 0.161\nStream size                      : 896 MiB (64%)\nWriting library                  : x264 core 98 r1649 c54c47d\nLanguage                         : English\n\nAudio\nID                               : 2\nFormat                           : AC-3\nFormat/Info                      : Audio Coding 3\nMode extension                   : CM (complete main)\nCodec ID                         : A_AC3\nDuration                         : 2h 25mn\nBit rate mode                    : Constant\nBit rate                         : 448 Kbps\nChannel(s)                       : 6 channels\nChannel positions                : Front: L C R, Side: L R, LFE\nSampling rate                    : 48.0 KHz\nBit depth                        : 16 bits\nCompression mode                 : Lossy\nStream size                      : 467 MiB (34%)\nLanguage                         : Hindi","torrent":{"xt":"urn:btih:5a5941abf3637a3312384878b3b96b34d8019cf7","amp;dn":"Akrosh+-+2010+Hindi++480p+DVDRip+X264+Untouch+AC3+5.1+Audio+ESub","amp;tr":["udp%3A%2F%2Ftracker.openbittorrent.com%3A80","udp%3A%2F%2Fopen.demonii.com%3A1337","udp%3A%2F%2Ftracker.coppersurfer.tk%3A6969","udp%3A%2F%2Fexodus.desync.com%3A6969"],"infoHash":"5a5941abf3637a3312384878b3b96b34d8019cf7","infoHashBuffer":{"type":"Buffer","data":[90,89,65,171,243,99,122,51,18,56,72,120,179,185,107,52,216,1,156,247]},"announce":[],"urlList":[]}}